Coordinates
version=1
nRows=19
nColumns=36
inDegrees=yes

Units are S.I. units (second, meters, Newtons, ...)
If the header above contains a line with 'inDegrees', this indicates whether rotational values are in degrees (yes) or radians (no).

endheader
time	pelvis_tilt	pelvis_list	pelvis_rotation	pelvis_tx	pelvis_ty	pelvis_tz	hip_flexion_r	hip_adduction_r	hip_rotation_r	knee_angle_r	knee_angle_r_beta	ankle_angle_r	subtalar_angle_r	mtp_angle_r	hip_flexion_l	hip_adduction_l	hip_rotation_l	knee_angle_l	knee_angle_l_beta	ankle_angle_l	subtalar_angle_l	mtp_angle_l	lumbar_extension	lumbar_bending	lumbar_rotation	arm_flex_r	arm_add_r	arm_rot_r	elbow_flex_r	pro_sup_r	arm_flex_l	arm_add_l	arm_rot_l	elbow_flex_l	pro_sup_l
      0.00000000	      5.41916788	     -2.83096981	      2.26656114	     -0.85938293	      1.30651823	     -0.10561006	     -7.96088687	      1.59796012	     -6.17171456	      4.12929506	      0.07206979	      1.91884745	    -12.20258167	     -6.48951385	    -11.01864592	     -5.09537390	      0.09411310	      2.09569061	      0.03657670	      8.94144629	      1.28396609	     -6.48951385	    -17.71108750	      2.88447744	     -0.71260329	     10.31146884	     -5.10859492	     15.62640239	     27.17736295	     82.15360065	      7.33488862	     -2.92305550	     13.91818983	     23.53771646	     71.40976635
      0.00416670	      3.89674110	     -2.41156113	      2.21197538	     -0.85851409	      1.30812623	     -0.10601896	     -5.96892992	      1.37844868	     -5.61092570	      5.03630009	      0.08790002	      3.83293001	    -11.05360649	     -6.67815593	     -8.85067985	     -4.03895211	      1.68162989	      2.49344418	      0.04351881	      8.55302386	      1.33094633	     -6.67815593	    -16.07430725	      2.42462478	     -0.86823669	      9.66896510	     -4.83189259	     14.05061752	     27.32510002	     79.42312895	      7.19133605	     -2.59033545	     12.28507997	     23.21207747	     69.69046486
      0.00833330	      3.28813215	     -1.78580923	      1.80459220	     -0.85817235	      1.30666660	     -0.10422608	     -5.44961506	      0.74162652	     -6.39876543	      4.50562505	      0.07863799	      3.90388941	    -10.74265605	     -6.93030817	     -8.42683460	     -3.40047270	      1.67039482	      2.17684823	      0.03799317	      7.95154533	      0.79761142	     -6.93030817	    -15.44024388	      1.32407540	     -0.24156585	      9.04031861	     -4.06785875	     10.47129919	     27.72101889	     79.50222890	      7.56035852	     -2.89090223	     11.76310681	     22.78609110	     70.40793089
      0.01250000	      4.01531408	     -1.52968804	      1.80710494	     -0.85790518	      1.30933352	     -0.10396016	     -6.50286713	      0.53126638	     -6.88764070	      3.92116956	      0.06843732	      4.12414131	    -10.07534100	     -7.21960716	     -9.71016415	     -3.13403658	      2.31210456	      1.40054802	      0.02444417	      7.41634704	     -0.24368351	     -7.21960716	    -16.48127433	      0.86595057	      0.12343385	      8.98823018	     -4.12238644	     10.69921333	     27.84563481	     79.40517299	      7.99325740	     -3.72810132	     14.11425789	     22.73417982	     71.36038153
      0.01666670	      4.55673693	     -1.47153927	      1.83085977	     -0.85539639	      1.30994540	     -0.10420065	     -7.45580263	      0.61002052	     -6.99401803	      3.32581420	      0.05804641	      3.80978421	    -10.34530638	     -7.29963463	    -10.64886653	     -3.06106969	      2.67929626	      0.94423087	      0.01647994	      7.31276597	     -0.74026794	     -7.29963463	    -17.19309312	      0.78916176	      0.27831690	      8.85337945	     -4.40317372	     12.00318720	     28.08461028	     78.13185236	      8.20301646	     -4.16922535	     15.91318665	     22.55874617	     71.21770247
      0.02083330	      4.95046910	     -1.39022733	      1.86417817	     -0.85782443	      1.31015338	     -0.10393091	     -7.97492138	      0.60642628	     -7.07885669	      3.02647494	      0.05282195	      3.88798112	    -10.38282212	     -7.36486088	    -11.15951967	     -2.96378153	      3.04658918	      0.77544898	      0.01353414	      7.27866284	     -1.30171545	     -7.36486088	    -17.81378727	      0.67017297	      0.45091928	      8.90093525	     -4.54792451	     12.67107626	     28.16856315	     75.13420328	      8.45789004	     -4.31562560	     16.51100464	     22.44167922	     69.48501073
      0.02500000	      5.12480143	     -1.38819003	      1.93858256	     -0.85966740	      1.30824432	     -0.10114527	     -8.26947725	      0.69911650	     -6.74534888	      2.74644099	      0.04793444	      3.62724781	    -11.07386642	     -7.42904179	    -11.27635316	     -3.03660686	      3.38185605	      0.75373790	      0.01315521	      7.33895217	     -1.83656292	     -7.42904179	    -18.12316296	      0.59536963	      0.57750302	      9.02499727	     -5.06328459	     15.34670892	     28.12882710	     73.97210626	      8.93233083	     -4.77505180	     19.23837114	     22.00370018	     69.35722819
      0.02916670	      5.14174903	     -1.37545015	      2.04245154	     -0.85844270	      1.31135225	     -0.10259820	     -8.39574355	      0.73730948	     -6.59953129	      2.54188802	      0.04436432	      3.49208046	    -11.13073545	     -7.47677961	    -11.26808015	     -3.05225477	      3.82205018	      0.72546242	      0.01266171	      7.16289246	     -2.35230868	     -7.47677961	    -18.21285924	      0.56351924	      0.67864170	      8.87770480	     -5.04139395	     14.40354475	     27.86623388	     77.62801991	      9.17172354	     -4.81917255	     19.42759145	     21.50670621	     72.02284860
      0.03333330	      5.24050514	     -1.35520688	      2.13300988	     -0.85825907	      1.31360336	     -0.10297648	     -8.61616675	      0.74534408	     -6.44312399	      2.27520877	      0.03970988	      3.37420143	    -11.07801174	     -7.49086558	    -11.36531820	     -3.05638377	      4.00730689	      0.69521087	      0.01213372	      7.01497107	     -2.47276589	     -7.49086558	    -18.39669135	      0.53787543	      0.66168393	      8.82795515	     -5.40357829	     16.35934965	     27.87132242	     72.89377168	      9.24029795	     -4.91268090	     20.26274790	     21.34625079	     68.50497064
      0.03750000	      5.23869747	     -1.40751698	      2.28699387	     -0.85788375	      1.31488091	     -0.10482051	     -8.64482574	      0.79309447	     -6.44706897	      2.12520883	      0.03709189	      3.03490819	    -11.07428400	     -7.49679534	    -11.37959494	     -3.09757846	      4.36785372	      0.68618546	      0.01197620	      6.76013698	     -2.89465047	     -7.49679534	    -18.39756703	      0.67006717	      0.61299300	      8.60649226	     -5.31717242	     14.64521289	     27.41547410	     78.76308226	      9.30129493	     -4.85002309	     19.91030598	     20.80128473	     72.31733624
      0.04166670	      5.40662441	     -1.45997402	      2.36334195	     -0.85932356	      1.30841184	     -0.10271863	     -8.85278298	      0.89292238	     -6.24029133	      1.98585131	      0.03465964	      2.93956797	    -11.19447567	     -7.49683683	    -11.55345009	     -3.17820829	      4.47143036	      0.69140415	      0.01206728	      6.76855773	     -3.07251821	     -7.49683683	    -18.65819119	      0.74048722	      0.53916468	      8.55730200	     -5.43766359	     14.74284528	     27.29881629	     78.87774837	      9.26273805	     -4.94197859	     19.57708353	     20.68893648	     72.43660427
      0.04583330	      5.57767908	     -1.48697617	      2.47967335	     -0.85999682	      1.30735419	     -0.10388249	     -9.02644297	      0.94634579	     -6.06523361	      1.94409682	      0.03393089	      3.02189849	    -11.09834441	     -7.49834213	    -11.70208699	     -3.23245042	      4.80535650	      0.69649216	      0.01215608	      6.67151226	     -3.53358487	     -7.49834213	    -18.89631532	      0.81297223	      0.47532989	      8.47045742	     -5.65216977	     15.47846590	     27.25474479	     74.06659739	      9.20748815	     -4.98260777	     19.73603020	     20.65249015	     68.99310672
      0.05000000	      5.57584199	     -1.49837891	      2.56866766	     -0.86050977	      1.30739170	     -0.10367774	     -9.05930793	      0.99603240	     -5.78634255	      1.79925632	      0.03140295	      2.97399536	    -11.41305674	     -7.49949480	    -11.64311769	     -3.27473795	      4.91227716	      0.69246018	      0.01208571	      6.80444446	     -3.41429856	     -7.49949480	    -18.86835177	      0.86986665	      0.53460863	      8.27348963	     -5.68151678	     13.93855525	     26.95523865	     80.01471827	      9.27913709	     -5.05483458	     19.66548980	     20.19153507	     72.97890136
      0.05416670	      5.56302755	     -1.46722142	      2.67855996	     -0.86209865	      1.30704405	     -0.10477118	     -9.00255033	      0.95560377	     -5.75518738	      1.79995066	      0.03141507	      3.13295545	    -11.36496950	     -7.49982338	    -11.54733193	     -3.23913371	      5.24222856	      0.70050909	      0.01222619	      6.69937359	     -3.74590031	     -7.49982338	    -18.84148208	      0.90262477	      0.33485007	      8.46373350	     -5.94555395	     15.77838982	     26.35516120	     75.33019321	      9.21778790	     -5.22162082	     20.69166623	     19.99888970	     69.91661464
      0.05833330	      5.49223068	     -1.42719250	      2.74128412	     -0.86063322	      1.31041521	     -0.10483085	     -8.91570536	      0.87793527	     -6.31352058	      1.84297349	      0.03216596	      3.75988963	    -10.11447679	     -7.49994318	    -11.44564212	     -3.18521514	      5.56725217	      0.69820986	      0.01218606	      6.37698494	     -4.21559183	     -7.49994318	    -18.65100901	      0.88913039	      0.25702701	      8.40215810	     -5.72647835	     15.06406279	     25.65910964	     68.70746397	      9.00642481	     -5.01158662	     19.37210142	     19.74372851	     65.27029727
      0.06250000	      5.69745852	     -1.36878268	      2.63956306	     -0.86037210	      1.31698939	     -0.10468184	     -9.23374848	      0.81886209	     -5.89292980	      1.58097202	      0.02759317	      2.54294709	    -11.99998384	     -7.49994574	    -11.67585366	     -3.11933141	      5.14078150	      0.67077657	      0.01170726	      6.36957574	     -3.37212740	     -7.49994574	    -19.05652298	      0.81552610	      0.39620333	      8.18192368	     -6.28795480	     16.39609806	     26.36352707	     71.08305621	      9.01926347	     -5.32662945	     20.60965816	     19.75762335	     66.99601228
      0.06666670	      5.70429086	     -1.36452257	      2.59544500	     -0.86075365	      1.31573677	     -0.10509472	     -9.24994380	      0.78697337	     -6.47024136	      1.49213955	      0.02604275	      2.22901172	    -11.74339991	     -7.49998244	    -11.68140271	     -3.08507827	      5.08872570	      0.68732204	      0.01199603	      6.15514482	     -3.42685430	     -7.49998244	    -19.12238152	      0.81647991	      0.55494969	      7.97821823	     -6.05817059	     13.37161378	     25.84267759	     80.06567642	      9.05611142	     -5.31146090	     19.57608132	     19.31952519	     73.37201631
      0.07083330	      5.74158329	     -1.37160941	      2.49734736	     -0.86141509	      1.31382212	     -0.10436188	     -9.26198825	      0.78894371	     -6.51090007	      1.41947076	      0.02477444	      1.83420938	    -12.12394806	     -7.49999572	    -11.72838994	     -3.07489251	      5.10598739	      0.68340213	      0.01192762	      6.09145350	     -3.35801579	     -7.49999572	    -19.22201142	      0.79522380	      0.53419661	      8.06430876	     -6.17966628	     14.19292680	     25.45754169	     77.83355598	      8.89695362	     -5.42209507	     19.79243098	     19.19234383	     72.04129742
      0.07500000	      5.72320897	     -1.41675510	      2.42626219	     -0.86214757	      1.31485857	     -0.10374330	     -9.23964065	      0.82014314	     -6.64889301	      1.35458349	      0.02364194	      1.43962725	    -12.36536831	     -7.49999827	    -11.68257383	     -3.13100184	      5.18691711	      0.67972020	      0.01186336	      6.02437120	     -3.29340043	     -7.49999827	    -19.27180831	      0.85513339	      0.55117203	      7.92515124	     -6.08129111	     12.45168302	     25.40910128	     80.63806569	      8.67407085	     -5.32142514	     17.77627648	     19.16526659	     74.54428854
